name p6_grf_mean_speed_1.6
datacolumns 13
datarows 34
range 0.0000000000 0.3300000000
endheader
time	grf_x_l_mean	grf_x_l_var	grf_y_l_mean	grf_y_l_var	grf_z_l_mean	grf_z_l_var	grf_x_r_mean	grf_x_r_var	grf_y_r_mean	grf_y_r_var	grf_z_r_mean	grf_z_r_var
0.0000000000	199.0610300845	1.0000000000	871.4426093419	1.0000000000	0.0000000000	0.0000000000	6.4829955757	1.0000000000	11.7369821594	1.0000000000	0.0000000000	0.0000000000
0.0100000000	212.9206873890	1.0000000000	848.0761773532	1.0000000000	0.0000000000	0.0000000000	11.2408579001	1.0000000000	63.4111063753	1.0000000000	0.0000000000	0.0000000000
0.0200000000	223.3249931825	1.0000000000	808.0201536588	1.0000000000	0.0000000000	0.0000000000	15.5856282017	1.0000000000	151.2865389656	1.0000000000	0.0000000000	0.0000000000
0.0300000000	227.8944292224	1.0000000000	749.2022274148	1.0000000000	0.0000000000	0.0000000000	13.8626032759	1.0000000000	274.4902532930	1.0000000000	0.0000000000	0.0000000000
0.0400000000	223.8522983377	1.0000000000	671.7405975744	1.0000000000	0.0000000000	0.0000000000	-4.0181812353	1.0000000000	418.4448862996	1.0000000000	0.0000000000	0.0000000000
0.0500000000	208.2582917749	1.0000000000	578.1937454377	1.0000000000	0.0000000000	0.0000000000	-40.8185894698	1.0000000000	558.8942415281	1.0000000000	0.0000000000	0.0000000000
0.0600000000	181.6261925933	1.0000000000	473.5320337226	1.0000000000	0.0000000000	0.0000000000	-83.8191445548	1.0000000000	677.9792888024	1.0000000000	0.0000000000	0.0000000000
0.0700000000	148.4987731432	1.0000000000	366.8296093043	1.0000000000	0.0000000000	0.0000000000	-120.9308154362	1.0000000000	770.3350654435	1.0000000000	0.0000000000	0.0000000000
0.0800000000	112.4648082422	1.0000000000	267.7642201666	1.0000000000	0.0000000000	0.0000000000	-152.3606613317	1.0000000000	837.8999944169	1.0000000000	0.0000000000	0.0000000000
0.0900000000	76.9333294749	1.0000000000	182.8497387098	1.0000000000	0.0000000000	0.0000000000	-178.1531845186	1.0000000000	888.3960909331	1.0000000000	0.0000000000	0.0000000000
0.1000000000	47.5122724410	1.0000000000	116.3483952984	1.0000000000	0.0000000000	0.0000000000	-195.1557175075	1.0000000000	931.5434258302	1.0000000000	0.0000000000	0.0000000000
0.1100000000	25.5210334664	1.0000000000	69.4630903918	1.0000000000	0.0000000000	0.0000000000	-203.6171270194	1.0000000000	971.2556823759	1.0000000000	0.0000000000	0.0000000000
0.1200000000	10.8074784556	1.0000000000	37.9460073324	1.0000000000	0.0000000000	0.0000000000	-206.1875342597	1.0000000000	1004.0332051351	1.0000000000	0.0000000000	0.0000000000
0.1300000000	2.8914484642	1.0000000000	16.8238199945	1.0000000000	0.0000000000	0.0000000000	-201.7369376455	1.0000000000	1025.6365358558	1.0000000000	0.0000000000	0.0000000000
0.1400000000	-1.1730255744	1.0000000000	4.8936242130	1.0000000000	0.0000000000	0.0000000000	-190.6548215485	1.0000000000	1034.9702231178	1.0000000000	0.0000000000	0.0000000000
0.1500000000	0.0000000000	1.0000000000	0.0000000000	1.0000000000	0.0000000000	0.0000000000	-176.9845769027	1.0000000000	1031.1193753941	1.0000000000	0.0000000000	0.0000000000
0.1600000000	0.0000000000	1.0000000000	0.0000000000	1.0000000000	0.0000000000	0.0000000000	-161.0860884299	1.0000000000	1013.2325012713	1.0000000000	0.0000000000	0.0000000000
0.1700000000	0.0000000000	1.0000000000	0.0000000000	1.0000000000	0.0000000000	0.0000000000	-142.6410657781	1.0000000000	983.0483212918	1.0000000000	0.0000000000	0.0000000000
0.1800000000	0.0000000000	1.0000000000	0.0000000000	1.0000000000	0.0000000000	0.0000000000	-124.7538492713	1.0000000000	944.2621623724	1.0000000000	0.0000000000	0.0000000000
0.1900000000	-1.0693721139	1.0000000000	0.0299841974	1.0000000000	0.0000000000	0.0000000000	-108.6258340396	1.0000000000	898.7924152676	1.0000000000	0.0000000000	0.0000000000
0.2000000000	-0.1368418667	1.0000000000	0.1737617815	1.0000000000	0.0000000000	0.0000000000	-93.2525783810	1.0000000000	847.4508341658	1.0000000000	0.0000000000	0.0000000000
0.2100000000	-0.5099735567	1.0000000000	0.1057716815	1.0000000000	0.0000000000	0.0000000000	-79.8922399311	1.0000000000	794.2066483605	1.0000000000	0.0000000000	0.0000000000
0.2200000000	-0.6510542669	1.0000000000	0.4560227962	1.0000000000	0.0000000000	0.0000000000	-69.4013068185	1.0000000000	744.2407051724	1.0000000000	0.0000000000	0.0000000000
0.2300000000	0.1543990196	1.0000000000	0.6124861216	1.0000000000	0.0000000000	0.0000000000	-60.1832960741	1.0000000000	699.9826313112	1.0000000000	0.0000000000	0.0000000000
0.2400000000	-0.1463613994	1.0000000000	0.2202008031	1.0000000000	0.0000000000	0.0000000000	-51.6629490586	1.0000000000	661.6754163633	1.0000000000	0.0000000000	0.0000000000
0.2500000000	0.0000000000	1.0000000000	0.0000000000	1.0000000000	0.0000000000	0.0000000000	-44.7930835608	1.0000000000	630.0653793134	1.0000000000	0.0000000000	0.0000000000
0.2600000000	-0.1556191478	1.0000000000	0.1540113888	1.0000000000	0.0000000000	0.0000000000	-38.6643397199	1.0000000000	606.5243405775	1.0000000000	0.0000000000	0.0000000000
0.2700000000	-0.1147861213	1.0000000000	0.1413055333	1.0000000000	0.0000000000	0.0000000000	-32.7602037811	1.0000000000	590.7574749038	1.0000000000	0.0000000000	0.0000000000
0.2800000000	0.0000000000	1.0000000000	0.0000000000	1.0000000000	0.0000000000	0.0000000000	-27.5510108795	1.0000000000	580.6414473290	1.0000000000	0.0000000000	0.0000000000
0.2900000000	-0.4846611225	1.0000000000	0.0594011689	1.0000000000	0.0000000000	0.0000000000	-22.7915356474	1.0000000000	574.9093504434	1.0000000000	0.0000000000	0.0000000000
0.3000000000	0.0053130850	1.0000000000	0.3218547214	1.0000000000	0.0000000000	0.0000000000	-17.8643996597	1.0000000000	574.1109038664	1.0000000000	0.0000000000	0.0000000000
0.3100000000	-0.6595391733	1.0000000000	0.0853250754	1.0000000000	0.0000000000	0.0000000000	-12.5569013745	1.0000000000	577.9235412966	1.0000000000	0.0000000000	0.0000000000
0.3200000000	-0.8127840771	1.0000000000	0.0300432848	1.0000000000	0.0000000000	0.0000000000	-7.0258005212	1.0000000000	585.0064131714	1.0000000000	0.0000000000	0.0000000000
0.3300000000	-0.3334640764	1.0000000000	0.4370559585	1.0000000000	0.0000000000	0.0000000000	-1.2224096609	1.0000000000	595.1546818776	1.0000000000	0.0000000000	0.0000000000
